<?xml version="1.0" encoding="UTF-8" standalone="no"?>
<!-- Created with Inkscape (http://www.inkscape.org/) -->

<svg
   width="65.263885mm"
   height="65.263893mm"
   viewBox="0 0 65.263885 65.263893"
   version="1.1"
   id="svg1"
   sodipodi:docname="hamburgerMenu_1.svg"
   inkscape:version="1.4.2 (f4327f4, 2025-05-13)"
   xmlns:inkscape="http://www.inkscape.org/namespaces/inkscape"
   xmlns:sodipodi="http://sodipodi.sourceforge.net/DTD/sodipodi-0.dtd"
   xmlns="http://www.w3.org/2000/svg"
   xmlns:svg="http://www.w3.org/2000/svg">
  <sodipodi:namedview
     id="namedview1"
     pagecolor="#ffffff"
     bordercolor="#000000"
     borderopacity="0.25"
     inkscape:showpageshadow="2"
     inkscape:pageopacity="0.0"
     inkscape:pagecheckerboard="0"
     inkscape:deskcolor="#d1d1d1"
     inkscape:document-units="mm"
     inkscape:zoom="0.76167929"
     inkscape:cx="-62.362205"
     inkscape:cy="176.58351"
     inkscape:window-width="1920"
     inkscape:window-height="1057"
     inkscape:window-x="-8"
     inkscape:window-y="-8"
     inkscape:window-maximized="1"
     inkscape:current-layer="svg1" />
  <defs
     id="defs1" />
  <g
     id="layer1"
     transform="translate(-64.749555,-97.259649)"
     style="fill:#7c8b8f;fill-opacity:1">
    <path
       style="fill:#7c8b8f;stroke-width:0.264583;fill-opacity:1"
       d="m 68.033105,159.23999 c -3.15028,-3.15027 -3.28355,-3.3467 -3.28355,-4.83954 0,-1.556 0,-1.556 11.45951,-13.03118 l 11.45951,-11.47518 -11.45951,-11.47891 c -11.45951,-11.4789 -11.45951,-11.4789 -11.45951,-13.03367 0,-1.49129 0.13406,-1.68882 3.28355,-4.83831 3.15028,-3.150282 3.3467,-3.283551 4.83954,-3.283551 1.556,0 1.556,0 13.03118,11.459501 l 11.47519,11.45951 11.478885,-11.45951 c 11.4789,-11.459501 11.4789,-11.459501 13.03368,-11.459501 1.49129,0 1.68882,0.134053 4.83831,3.283551 3.1495,3.14949 3.28355,3.34702 3.28355,4.83831 0,1.55477 0,1.55477 -11.45951,13.03367 l -11.4595,11.47891 11.4595,11.47518 c 11.45951,11.47518 11.45951,11.47518 11.45951,13.03118 0,1.49284 -0.13327,1.68927 -3.28355,4.83954 -3.14949,3.1495 -3.34702,3.28355 -4.83831,3.28355 -1.55478,0 -1.55478,0 -13.03368,-11.45951 l -11.478885,-11.4595 -11.47519,11.4595 c -11.47518,11.45951 -11.47518,11.45951 -13.03118,11.45951 -1.49284,0 -1.68926,-0.13327 -4.83954,-3.28355 z"
       id="path1" />
  </g>
</svg>
