<?xml version="1.0" encoding="UTF-8" standalone="no"?>
<!-- Created with Inkscape (http://www.inkscape.org/) -->

<svg
   version="1.1"
   id="svg1"
   width="534.9726"
   height="233"
   viewBox="0 0 534.9726 233"
   sodipodi:docname="hamburgerMenu_0.svg"
   inkscape:version="1.4.2 (f4327f4, 2025-05-13)"
   xmlns:inkscape="http://www.inkscape.org/namespaces/inkscape"
   xmlns:sodipodi="http://sodipodi.sourceforge.net/DTD/sodipodi-0.dtd"
   xmlns="http://www.w3.org/2000/svg"
   xmlns:svg="http://www.w3.org/2000/svg">
  <defs
     id="defs1" />
  <sodipodi:namedview
     id="namedview1"
     pagecolor="#ffffff"
     bordercolor="#000000"
     borderopacity="0.25"
     inkscape:showpageshadow="2"
     inkscape:pageopacity="0.0"
     inkscape:pagecheckerboard="0"
     inkscape:deskcolor="#d1d1d1"
     inkscape:zoom="1.1737252"
     inkscape:cx="233.87075"
     inkscape:cy="283.28607"
     inkscape:window-width="1920"
     inkscape:window-height="1057"
     inkscape:window-x="-8"
     inkscape:window-y="-8"
     inkscape:window-maximized="1"
     inkscape:current-layer="g1">
    <inkscape:page
       x="0"
       y="0"
       width="534.9726"
       height="233"
       id="page2"
       margin="0"
       bleed="0" />
  </sodipodi:namedview>
  <g
     inkscape:groupmode="layer"
     inkscape:label="Image"
     id="g1"
     transform="translate(-326.03167,-82)">
    <path
       style="fill:#7c8b8f;fill-opacity:1"
       d="m 340.48519,312.89761 c -9.37277,-4.94463 -14.47418,-13.2029 -14.45346,-23.39761 0.0207,-10.19282 5.09513,-18.39104 14.18808,-22.92225 L 345.39269,264 l 248.05365,0.022 c 247.39218,0.0219 248.06566,0.0274 252.55366,2.05895 6.04311,2.7355 9.77576,6.40969 12.61671,12.41909 2.57795,5.45308 3.12374,13.29416 1.36587,19.62267 -1.34231,4.83243 -7.98534,12.21616 -13.30957,14.79358 L 842.36855,315 H 593.41947 344.47038 Z m 0,-91 c -9.37277,-4.94463 -14.47418,-13.2029 -14.45346,-23.39761 0.0207,-10.19282 5.09513,-18.39104 14.18808,-22.92225 L 345.39269,173 l 248.05365,0.022 c 247.39218,0.0219 248.06566,0.0274 252.55366,2.05895 6.04311,2.7355 9.77576,6.40969 12.61671,12.41909 2.57795,5.45308 3.12374,13.29416 1.36587,19.62267 -1.34231,4.83243 -7.98534,12.21616 -13.30957,14.79358 L 842.36855,224 H 593.41947 344.47038 Z m 0,-91 c -9.37277,-4.94463 -14.47418,-13.2029 -14.45346,-23.39761 0.0207,-10.192822 5.09513,-18.391036 14.18808,-22.922248 L 345.39269,82 593.44634,82.02196 C 840.83852,82.04386 841.512,82.04935 846,84.080911 c 6.04311,2.735499 9.77576,6.409685 12.61671,12.419087 2.57795,5.453082 3.12374,13.294162 1.36587,19.622672 -1.34231,4.83243 -7.98534,12.21616 -13.30957,14.79358 L 842.36855,133 H 593.41947 344.47038 Z"
       id="path1" />
  </g>
</svg>
